<?xml version='1.0' encoding='utf-8'?>
<svg xmlns:xlink="http://www.w3.org/1999/xlink" xmlns="http://www.w3.org/2000/svg" version="1.1" id="Layer_1" x="0px" y="0px" viewBox="0 0 1600 1000" enable-background="new 0 0 1600 1000"> <g> <defs> <rect id="SVGID_1_" width="1600" height="1000"/> </defs> <clipPath id="SVGID_2_"> <use xlink:href="#SVGID_1_" overflow="visible"/> </clipPath> <linearGradient id="SVGID_3_" gradientUnits="userSpaceOnUse" x1="800" y1="-3.591686e-008" x2="800" y2="1000"> <stop offset="0" style="stop-color:#1E92BD"/> <stop offset="8.497125e-002" style="stop-color:#6897AB"/> <stop offset="0.189" style="stop-color:#939C96"/> <stop offset="0.2988" style="stop-color:#B4A083"/> <stop offset="0.4132" style="stop-color:#CEA473"/> <stop offset="0.5338" style="stop-color:#E1A766"/> <stop offset="0.6634" style="stop-color:#EEA95A"/> <stop offset="0.8083" style="stop-color:#F6AA53"/> <stop offset="1" style="stop-color:#FAAB50"/> </linearGradient> <rect clip-path="url(#SVGID_2_)" fill="url(#SVGID_3_)" width="1600" height="1000"/> <g clip-path="url(#SVGID_2_)"> <circle opacity="0.12" fill="#F5C093" cx="950.7" cy="534.5" r="341.8"/> <circle opacity="0.22" fill="#F4B848" cx="950.7" cy="534.5" r="255.3"/> <circle fill="#F47721" cx="950.7" cy="534.5" r="154.4"/> </g> <path clip-path="url(#SVGID_2_)" fill="#18224A" d="M1772.6,586.8v404.3l-44.7,108.5l-1821.3-27.7V759.1c0,0,17.9-15.4,49.6-36.6 c92.4-61.7,302-172.4,527-93.2c302.1,106.4,595.7,87.4,791.5-55.3c115.7-84.3,268.6-64.5,374.2-34.2 C1722.1,560.8,1772.6,586.8,1772.6,586.8z"/> <path clip-path="url(#SVGID_2_)" fill="#17110F" d="M1724,796.4c0,18.6-15.1,33.6-33.6,33.6H1649v2.8h-199.7 c0.8,2.9,1.3,6.1,1.3,9.3c0,18.6-15.1,33.6-33.6,33.6h-241.1c2.4,2.9,4.4,6.3,5.7,9.9c1.3,3.6,2.1,7.5,2.1,11.6 c0,18.6-15.1,33.6-33.6,33.6H721.3c-9.3,0-17.7-3.8-23.8-9.8c-6.1-6.1-9.8-14.5-9.8-23.8H555.3c-9.3,0-17.7-3.8-23.8-9.8 c-6.1-6.1-9.8-14.5-9.8-23.8c0-8.2,2.9-15.7,7.8-21.5H371c0.7,2.7,1,5.5,1,8.4c0,18.6-15.1,33.6-33.6,33.6H-90.4c-1,0-2,0-3-0.1 c-8.1-0.7-15.4-4.3-20.8-9.7c-6.1-6.1-9.9-14.5-9.9-23.8c0-17.6,13.5-32,30.7-33.5c1-0.1,2-0.1,3-0.1h46.7v-58.3 c92.4-61.7,302-172.4,527-93.2c302.1,106.4,595.7,87.4,791.5-55.3c115.7-84.3,268.6-64.5,374.2-34.2v186.9h41.4 c9.3,0,17.7,3.8,23.8,9.9C1720.2,778.7,1724,787.1,1724,796.4z"/> <path clip-path="url(#SVGID_2_)" fill="#4A642E" d="M1724,760.4c0,18.6-15.1,33.6-33.6,33.6H1649v2.8h-199.7 c0.8,2.9,1.3,6.1,1.3,9.3c0,18.6-15.1,33.6-33.6,33.6h-241.1c2.4,2.9,4.4,6.3,5.7,9.9c1.3,3.6,2.1,7.5,2.1,11.6 c0,18.6-15.1,33.6-33.6,33.6H721.3c-9.3,0-17.7-3.8-23.8-9.8c-6.1-6.1-9.8-14.5-9.8-23.8H555.3c-9.3,0-17.7-3.8-23.8-9.8 c-6.1-6.1-9.8-14.5-9.8-23.8c0-8.2,2.9-15.7,7.8-21.5H371c0.7,2.7,1,5.5,1,8.4c0,18.6-15.1,33.6-33.6,33.6H-90.4c-1,0-2,0-3-0.1 c-8.1-0.7-15.4-4.3-20.8-9.7c-6.1-6.1-9.9-14.5-9.9-23.8c0-17.6,13.5-32,30.7-33.5c1-0.1,2-0.1,3-0.1h46.7v-58.3 c92.4-61.7,302-172.4,527-93.2c302.1,106.4,595.7,87.4,791.5-55.3c115.7-84.3,268.6-64.5,374.2-34.2v186.9h41.4 c9.3,0,17.7,3.8,23.8,9.9C1720.2,742.7,1724,751.1,1724,760.4z"/> <g clip-path="url(#SVGID_2_)"> <path fill="#BCBEC0" d="M366.7,215.6c0,11.6-11.2,21-24.9,21H229.6c-1.6,0-3.3-0.1-4.8-0.4c-1.6,0.3-3.2,0.4-4.8,0.4h-80.1 c-6.9,0-13.1-2.4-17.6-6.2c-4.5-3.8-7.3-9-7.3-14.8c0-11.6,11.1-20.9,24.8-21v0c0-11.6,11.2-21,24.9-21h18.6 c-1.1-1.5-1.9-3.2-2.5-5c-0.6-1.8-0.9-3.6-0.9-5.5c0-9.9,8.1-18.1,19-20.4c1.9-0.4,3.9-0.6,6-0.6h49c13.8,0,24.9,9.4,24.9,21h29.5 c13.8,0,24.9,9.4,24.9,21c0,3.8-1.2,7.4-3.4,10.5h12c6.9,0,13.1,2.3,17.6,6.2C363.9,204.5,366.7,209.8,366.7,215.6z"/> <path fill="#E6E7E8" d="M305.8,215.6c0,11.6-11.2,21-24.9,21H168.7c-1.7,0-3.3-0.1-4.8-0.4c-1.6,0.3-3.2,0.4-4.8,0.4h-19.2 c-6.9,0-13.1-2.4-17.6-6.2c-4.5-3.8-7.3-9-7.3-14.8c0-11.6,11.1-20.9,24.8-21v0c0-11.6,11.2-21,24.9-21h18.6 c-1.1-1.5-1.9-3.2-2.5-5c-0.6-1.8-0.9-3.6-0.9-5.5c0-9.9,8.1-18.1,19-20.4c10.9,2.3,18.9,10.5,18.9,20.4h29.5 c13.8,0,24.9,9.4,24.9,21c0,3.8-1.2,7.4-3.4,10.5h12c6.9,0,13.1,2.3,17.6,6.2C303,204.5,305.8,209.8,305.8,215.6z"/> </g> <g clip-path="url(#SVGID_2_)"> <path fill="#BCBEC0" d="M1226.1,144c0,12.9-10.5,23.4-23.4,23.4h-105.2c-1.5,0-3.1-0.2-4.5-0.4c-1.5,0.3-3,0.4-4.5,0.4h-75.1 c-6.5,0-12.3-2.6-16.5-6.8c-4.2-4.2-6.8-10.1-6.8-16.5c0-12.9,10.4-23.3,23.2-23.4v0c0-12.9,10.5-23.4,23.4-23.4h17.5 c-1-1.7-1.8-3.6-2.3-5.5c-0.5-2-0.8-4-0.8-6.2c0-11,7.6-20.2,17.8-22.7c1.8-0.4,3.7-0.7,5.6-0.7h45.9c12.9,0,23.4,10.5,23.4,23.4 h27.7c12.9,0,23.4,10.5,23.4,23.4c0,4.3-1.2,8.2-3.2,11.7h11.2c6.5,0,12.3,2.6,16.5,6.8C1223.5,131.7,1226.1,137.5,1226.1,144z"/> <path fill="#E6E7E8" d="M1169,144c0,12.9-10.5,23.4-23.4,23.4h-105.2c-1.6,0-3.1-0.2-4.5-0.4c-1.5,0.3-3,0.4-4.5,0.4h-18 c-6.5,0-12.3-2.6-16.5-6.8c-4.2-4.2-6.8-10.1-6.8-16.5c0-12.9,10.4-23.3,23.2-23.4v0c0-12.9,10.5-23.4,23.4-23.4h17.5 c-1-1.7-1.8-3.6-2.3-5.5c-0.5-2-0.8-4-0.8-6.2c0-11,7.6-20.2,17.8-22.7c10.2,2.5,17.8,11.7,17.8,22.7h27.7 c12.9,0,23.4,10.5,23.4,23.4c0,4.3-1.2,8.2-3.2,11.7h11.2c6.5,0,12.3,2.6,16.5,6.8C1166.4,131.7,1169,137.5,1169,144z"/> </g> <g clip-path="url(#SVGID_2_)"> <path fill="#BCBEC0" d="M587.7,324.1c0,9.6-7.8,17.4-17.4,17.4h-78.5c-1.2,0-2.3-0.1-3.4-0.3c-1.1,0.2-2.2,0.3-3.4,0.3h-56 c-4.8,0-9.2-2-12.3-5.1c-3.2-3.2-5.1-7.5-5.1-12.3c0-9.6,7.8-17.4,17.3-17.4v0c0-9.6,7.8-17.4,17.4-17.4h13 c-0.7-1.3-1.3-2.7-1.7-4.1c-0.4-1.5-0.6-3-0.6-4.6c0-8.2,5.6-15.1,13.3-16.9c1.3-0.3,2.7-0.5,4.2-0.5h34.2 c9.6,0,17.4,7.8,17.4,17.4h20.6c9.6,0,17.4,7.8,17.4,17.4c0,3.2-0.9,6.2-2.3,8.7h8.4c4.8,0,9.2,2,12.3,5.1 C585.7,314.9,587.7,319.2,587.7,324.1z"/> <path fill="#E6E7E8" d="M545.1,324.1c0,9.6-7.8,17.4-17.4,17.4h-78.5c-1.2,0-2.3-0.1-3.4-0.3c-1.1,0.2-2.2,0.3-3.4,0.3H429 c-4.8,0-9.2-2-12.3-5.1c-3.2-3.2-5.1-7.5-5.1-12.3c0-9.6,7.8-17.4,17.3-17.4v0c0-9.6,7.8-17.4,17.4-17.4h13 c-0.7-1.3-1.3-2.7-1.7-4.1c-0.4-1.5-0.6-3-0.6-4.6c0-8.2,5.6-15.1,13.3-16.9c7.6,1.9,13.3,8.8,13.3,16.9h20.6 c9.6,0,17.4,7.8,17.4,17.4c0,3.2-0.9,6.2-2.3,8.7h8.4c4.8,0,9.2,2,12.3,5.1S545.1,319.2,545.1,324.1z"/> </g> <g clip-path="url(#SVGID_2_)"> <path fill="#BCBEC0" d="M353.4,423c0,6.2-5,11.1-11.1,11.1h-50.2c-0.7,0-1.5-0.1-2.2-0.2c-0.7,0.1-1.4,0.2-2.2,0.2H252 c-3.1,0-5.9-1.2-7.9-3.3c-2-2-3.3-4.8-3.3-7.9c0-6.1,5-11.1,11.1-11.1v0c0-6.2,5-11.1,11.1-11.1h8.3c-0.5-0.8-0.8-1.7-1.1-2.6 c-0.3-0.9-0.4-1.9-0.4-2.9c0-5.2,3.6-9.6,8.5-10.8c0.9-0.2,1.8-0.3,2.7-0.3h21.9c6.2,0,11.1,5,11.1,11.1h13.2 c6.2,0,11.1,5,11.1,11.1c0,2-0.6,3.9-1.5,5.6h5.4c3.1,0,5.9,1.2,7.9,3.3C352.2,417.1,353.4,419.9,353.4,423z"/> <path fill="#E6E7E8" d="M326.2,423c0,6.2-5,11.1-11.1,11.1h-50.2c-0.7,0-1.5-0.1-2.2-0.2c-0.7,0.1-1.4,0.2-2.2,0.2H252 c-3.1,0-5.9-1.2-7.9-3.3c-2-2-3.3-4.8-3.3-7.9c0-6.1,5-11.1,11.1-11.1v0c0-6.2,5-11.1,11.1-11.1h8.3c-0.5-0.8-0.8-1.7-1.1-2.6 c-0.3-0.9-0.4-1.9-0.4-2.9c0-5.2,3.6-9.6,8.5-10.8c4.9,1.2,8.5,5.6,8.5,10.8H300c6.2,0,11.1,5,11.1,11.1c0,2-0.6,3.9-1.5,5.6h5.4 c3.1,0,5.9,1.2,7.9,3.3S326.2,419.9,326.2,423z"/> </g> <g clip-path="url(#SVGID_2_)"> <path fill="#BCBEC0" d="M1451.6,380.5c0,6.2-5,11.1-11.1,11.1h-50.2c-0.7,0-1.5-0.1-2.2-0.2c-0.7,0.1-1.4,0.2-2.2,0.2h-35.8 c-3.1,0-5.9-1.2-7.9-3.3c-2-2-3.3-4.8-3.3-7.9c0-6.1,5-11.1,11.1-11.1v0c0-6.2,5-11.1,11.1-11.1h8.3c-0.5-0.8-0.8-1.7-1.1-2.6 c-0.3-0.9-0.4-1.9-0.4-2.9c0-5.2,3.6-9.6,8.5-10.8c0.9-0.2,1.8-0.3,2.7-0.3h21.9c6.2,0,11.1,5,11.1,11.1h13.2 c6.2,0,11.1,5,11.1,11.1c0,2-0.6,3.9-1.5,5.6h5.4c3.1,0,5.9,1.2,7.9,3.3C1450.3,374.6,1451.6,377.4,1451.6,380.5z"/> <path fill="#E6E7E8" d="M1424.3,380.5c0,6.2-5,11.1-11.1,11.1H1363c-0.7,0-1.5-0.1-2.2-0.2c-0.7,0.1-1.4,0.2-2.2,0.2h-8.6 c-3.1,0-5.9-1.2-7.9-3.3c-2-2-3.3-4.8-3.3-7.9c0-6.1,5-11.1,11.1-11.1v0c0-6.2,5-11.1,11.1-11.1h8.3c-0.5-0.8-0.8-1.7-1.1-2.6 c-0.3-0.9-0.4-1.9-0.4-2.9c0-5.2,3.6-9.6,8.5-10.8c4.9,1.2,8.5,5.6,8.5,10.8h13.2c6.2,0,11.1,5,11.1,11.1c0,2-0.6,3.9-1.5,5.6h5.4 c3.1,0,5.9,1.2,7.9,3.3C1423.1,374.6,1424.3,377.4,1424.3,380.5z"/> </g> <g clip-path="url(#SVGID_2_)"> <path fill="#BCBEC0" d="M763,178.2c0,6.2-5,11.1-11.1,11.1h-50.2c-0.7,0-1.5-0.1-2.2-0.2c-0.7,0.1-1.4,0.2-2.2,0.2h-35.8 c-3.1,0-5.9-1.2-7.9-3.3c-2-2-3.3-4.8-3.3-7.9c0-6.1,5-11.1,11.1-11.1v0c0-6.2,5-11.1,11.1-11.1h8.3c-0.5-0.8-0.8-1.7-1.1-2.6 c-0.3-0.9-0.4-1.9-0.4-2.9c0-5.2,3.6-9.6,8.5-10.8c0.9-0.2,1.8-0.3,2.7-0.3h21.9c6.2,0,11.1,5,11.1,11.1h13.2 c6.2,0,11.1,5,11.1,11.1c0,2-0.6,3.9-1.5,5.6h5.4c3.1,0,5.9,1.2,7.9,3.3C761.7,172.3,763,175.1,763,178.2z"/> <path fill="#E6E7E8" d="M735.7,178.2c0,6.2-5,11.1-11.1,11.1h-50.2c-0.7,0-1.5-0.1-2.2-0.2c-0.7,0.1-1.4,0.2-2.2,0.2h-8.6 c-3.1,0-5.9-1.2-7.9-3.3c-2-2-3.3-4.8-3.3-7.9c0-6.1,5-11.1,11.1-11.1v0c0-6.2,5-11.1,11.1-11.1h8.3c-0.5-0.8-0.8-1.7-1.1-2.6 c-0.3-0.9-0.4-1.9-0.4-2.9c0-5.2,3.6-9.6,8.5-10.8c4.9,1.2,8.5,5.6,8.5,10.8h13.2c6.2,0,11.1,5,11.1,11.1c0,2-0.6,3.9-1.5,5.6h5.4 c3.1,0,5.9,1.2,7.9,3.3C734.5,172.3,735.7,175.1,735.7,178.2z"/> </g> <g clip-path="url(#SVGID_2_)"> <path fill="#BCBEC0" d="M1589.4,262.8c0,11.6-9.4,21-21,21h-94.5c-1.4,0-2.8-0.1-4.1-0.4c-1.3,0.3-2.7,0.4-4.1,0.4h-67.5 c-5.8,0-11-2.4-14.8-6.2c-3.8-3.8-6.2-9-6.2-14.8c0-11.6,9.3-20.9,20.9-21v0c0-11.6,9.4-21,21-21h15.7c-0.9-1.5-1.6-3.2-2.1-5 c-0.5-1.8-0.7-3.6-0.7-5.5c0-9.9,6.8-18.1,16-20.4c1.6-0.4,3.3-0.6,5-0.6h41.3c11.6,0,21,9.4,21,21h24.9c11.6,0,21,9.4,21,21 c0,3.8-1,7.4-2.8,10.5h10.1c5.8,0,11.1,2.3,14.8,6.2C1587,251.8,1589.4,257,1589.4,262.8z"/> <path fill="#E6E7E8" d="M1538,262.8c0,11.6-9.4,21-21,21h-94.5c-1.4,0-2.8-0.1-4.1-0.4c-1.3,0.3-2.7,0.4-4.1,0.4h-16.2 c-5.8,0-11-2.4-14.8-6.2c-3.8-3.8-6.2-9-6.2-14.8c0-11.6,9.3-20.9,20.9-21v0c0-11.6,9.4-21,21-21h15.7c-0.9-1.5-1.6-3.2-2.1-5 c-0.5-1.8-0.7-3.6-0.7-5.5c0-9.9,6.8-18.1,16-20.4c9.2,2.3,16,10.5,16,20.4h24.9c11.6,0,21,9.4,21,21c0,3.8-1,7.4-2.8,10.5h10.1 c5.8,0,11,2.3,14.8,6.2C1535.7,251.8,1538,257,1538,262.8z"/> </g> <g clip-path="url(#SVGID_2_)"> <polygon fill="#424F31" points="244.5,704.4 24.1,704.4 119,496.2 131.7,468.4 "/> <path fill="#313D20" d="M214.4,693.1c0,4.3-1.5,8.2-4,11.3H24.1L119,496.2c7.4,2.2,12.9,9.1,12.9,17.2c0,9.9-8.1,18-18,18h16.5 c5,0,9.4,2,12.7,5.3c3.3,3.3,5.3,7.7,5.3,12.7c0,9.9-8.1,18-18,18h16.5c5,0,9.4,2,12.7,5.3c3.3,3.3,5.3,7.8,5.3,12.7 c0,9.9-8.1,18-18,18h16.5c5,0,9.4,2,12.7,5.3c3.3,3.3,5.3,7.7,5.3,12.7c0,9.9-8.1,18-18,18h16.5c9.9,0,18,8,18,18 c0,9.9-8,18-18,18h16.5c5,0,9.4,2,12.7,5.3S214.4,688.2,214.4,693.1z"/> </g> <g clip-path="url(#SVGID_2_)"> <polygon fill="#424F31" points="456.3,680.8 280,680.8 355.9,514.2 366,492 "/> <path fill="#313D20" d="M432.2,671.8c0,3.4-1.2,6.5-3.2,9H280l75.9-166.6c5.9,1.8,10.3,7.3,10.3,13.8c0,7.9-6.4,14.4-14.4,14.4 H365c4,0,7.6,1.6,10.2,4.2c2.6,2.6,4.2,6.2,4.2,10.2c0,7.9-6.4,14.4-14.4,14.4h13.2c4,0,7.6,1.6,10.2,4.2 c2.6,2.6,4.2,6.2,4.2,10.2c0,7.9-6.4,14.4-14.4,14.4h13.2c4,0,7.6,1.6,10.2,4.2c2.6,2.6,4.2,6.2,4.2,10.2 c0,7.9-6.4,14.4-14.4,14.4h13.2c7.9,0,14.4,6.4,14.4,14.4s-6.4,14.4-14.4,14.4h13.2c4,0,7.6,1.6,10.2,4.2 C430.6,664.2,432.2,667.8,432.2,671.8z"/> </g> <g clip-path="url(#SVGID_2_)"> <polygon fill="#424F31" points="353.4,723.4 177.1,723.4 253,556.8 263.1,534.5 "/> <path fill="#313D20" d="M329.3,714.4c0,3.4-1.2,6.5-3.2,9H177.1L253,556.8c5.9,1.8,10.3,7.3,10.3,13.8c0,7.9-6.4,14.4-14.4,14.4 h13.2c4,0,7.6,1.6,10.2,4.2c2.6,2.6,4.2,6.2,4.2,10.2c0,7.9-6.4,14.4-14.4,14.4h13.2c4,0,7.6,1.6,10.2,4.2 c2.6,2.6,4.2,6.2,4.2,10.2c0,7.9-6.4,14.4-14.4,14.4h13.2c4,0,7.6,1.6,10.2,4.2c2.6,2.6,4.2,6.2,4.2,10.2 c0,7.9-6.4,14.4-14.4,14.4h13.2c7.9,0,14.4,6.4,14.4,14.4c0,7.9-6.4,14.4-14.4,14.4h13.2c4,0,7.6,1.6,10.2,4.2 C327.7,706.8,329.3,710.4,329.3,714.4z"/> </g> <g clip-path="url(#SVGID_2_)"> <polygon fill="#424F31" points="653.4,734.5 453,734.5 539.3,567.9 550.8,545.7 "/> <path fill="#313D20" d="M626,725.5c0,3.4-1.3,6.5-3.6,9H453l86.3-166.6c6.8,1.8,11.7,7.3,11.7,13.8c0,7.9-7.3,14.4-16.3,14.4h15 c4.5,0,8.6,1.6,11.6,4.2c3,2.6,4.8,6.2,4.8,10.2c0,7.9-7.3,14.4-16.3,14.4h15c4.5,0,8.6,1.6,11.6,4.2c3,2.6,4.8,6.2,4.8,10.2 c0,7.9-7.3,14.4-16.3,14.4h15c4.5,0,8.6,1.6,11.6,4.2c3,2.6,4.8,6.2,4.8,10.2c0,7.9-7.3,14.4-16.3,14.4h15c9,0,16.3,6.4,16.3,14.4 s-7.3,14.4-16.3,14.4h15c4.5,0,8.6,1.6,11.5,4.2S626,721.5,626,725.5z"/> </g> <g clip-path="url(#SVGID_2_)"> <polygon fill="#424F31" points="815.6,712.3 639.2,712.3 715.1,545.7 725.3,523.4 "/> <path fill="#313D20" d="M791.4,703.2c0,3.4-1.2,6.5-3.2,9H639.2l75.9-166.6c5.9,1.8,10.3,7.3,10.3,13.8c0,7.9-6.4,14.4-14.4,14.4 h13.2c4,0,7.6,1.6,10.2,4.2c2.6,2.6,4.2,6.2,4.2,10.2c0,7.9-6.4,14.4-14.4,14.4h13.2c4,0,7.6,1.6,10.2,4.2 c2.6,2.6,4.2,6.2,4.2,10.2c0,7.9-6.4,14.4-14.4,14.4h13.2c4,0,7.6,1.6,10.2,4.2c2.6,2.6,4.2,6.2,4.2,10.2 c0,7.9-6.4,14.4-14.4,14.4h13.2c7.9,0,14.4,6.4,14.4,14.4c0,7.9-6.4,14.4-14.4,14.4h13.2c4,0,7.6,1.6,10.2,4.2 C789.8,695.7,791.4,699.3,791.4,703.2z"/> </g> <g clip-path="url(#SVGID_2_)"> <polygon fill="#424F31" points="1398.1,629.6 1653.6,629.6 1543.6,388.2 1528.9,356 "/> <path fill="#313D20" d="M1433,616.6c0,4.9,1.7,9.5,4.6,13h216l-110-241.4c-8.6,2.6-14.9,10.5-14.9,20c0,11.5,9.3,20.8,20.8,20.8 h-19.1c-5.8,0-11,2.3-14.7,6.1c-3.8,3.8-6.1,9-6.1,14.7c0,11.5,9.3,20.8,20.8,20.8h-19.1c-5.8,0-11,2.3-14.7,6.1 c-3.8,3.8-6.1,9-6.1,14.7c0,11.5,9.3,20.8,20.8,20.8h-19.1c-5.8,0-11,2.3-14.7,6.1c-3.8,3.8-6.1,9-6.1,14.7 c0,11.5,9.3,20.8,20.8,20.8H1473c-11.5,0-20.8,9.3-20.8,20.8c0,11.5,9.3,20.8,20.8,20.8h-19.1c-5.8,0-11,2.3-14.7,6.1 S1433,610.8,1433,616.6z"/> </g> <g clip-path="url(#SVGID_2_)"> <polygon fill="#424F31" points="1278.7,659.4 1511.8,659.4 1411.4,439.1 1398,409.7 "/> <path fill="#313D20" d="M1310.6,647.5c0,4.5,1.6,8.7,4.2,11.9h197.1l-100.4-220.2c-7.9,2.3-13.6,9.6-13.6,18.2 c0,10.5,8.5,19,19,19h-17.5c-5.2,0-10,2.1-13.4,5.6c-3.4,3.4-5.6,8.2-5.6,13.4c0,10.5,8.5,19,19,19h-17.5c-5.2,0-10,2.1-13.4,5.6 c-3.4,3.4-5.6,8.2-5.6,13.4c0,10.5,8.5,19,19,19h-17.5c-5.2,0-10,2.1-13.4,5.6c-3.4,3.4-5.6,8.2-5.6,13.4c0,10.5,8.5,19,19,19 H1347c-10.5,0-19,8.5-19,19c0,10.5,8.5,19,19,19h-17.5c-5.2,0-10,2.1-13.4,5.6S1310.6,642.2,1310.6,647.5z"/> </g> <g clip-path="url(#SVGID_2_)"> <polygon fill="#424F31" points="1179,664.8 1346.3,664.8 1274.2,506.8 1264.6,485.7 "/> <path fill="#313D20" d="M1201.8,656.3c0,3.2,1.1,6.2,3,8.5h141.4l-72-158c-5.6,1.7-9.8,6.9-9.8,13.1c0,7.5,6.1,13.6,13.6,13.6 h-12.5c-3.8,0-7.2,1.5-9.6,4c-2.5,2.5-4,5.9-4,9.6c0,7.5,6.1,13.6,13.6,13.6h-12.5c-3.8,0-7.2,1.5-9.6,4c-2.5,2.5-4,5.9-4,9.6 c0,7.5,6.1,13.6,13.6,13.6h-12.5c-3.8,0-7.2,1.5-9.6,4c-2.5,2.5-4,5.9-4,9.6c0,7.5,6.1,13.6,13.6,13.6H1228 c-7.5,0-13.6,6.1-13.6,13.6s6.1,13.6,13.6,13.6h-12.5c-3.8,0-7.2,1.5-9.6,4S1201.8,652.5,1201.8,656.3z"/> </g> <g opacity="0.43" clip-path="url(#SVGID_2_)"> <path fill="#1E2715" d="M1399.2,709.5h-154.1c-4.9,0-9-4-9-9l0,0c0-4.9,4-9,9-9h154.1c4.9,0,9,4,9,9l0,0 C1408.2,705.5,1404.2,709.5,1399.2,709.5z"/> <circle fill="#1E2715" cx="1208.2" cy="700.6" r="9"/> <circle fill="#1E2715" cx="1435.2" cy="700.6" r="9"/> <circle fill="#1E2715" cx="1461.4" cy="700.6" r="9"/> </g> <g clip-path="url(#SVGID_2_)"> <polygon fill="#424F31" points="1074.3,729.6 1241.5,729.6 1169.5,571.6 1159.9,550.5 "/> <path fill="#313D20" d="M1097.1,721.1c0,3.2,1.1,6.2,3,8.5h141.4l-72-158c-5.6,1.7-9.8,6.9-9.8,13.1c0,7.5,6.1,13.6,13.6,13.6 h-12.5c-3.8,0-7.2,1.5-9.6,4c-2.5,2.5-4,5.9-4,9.6c0,7.5,6.1,13.6,13.6,13.6h-12.5c-3.8,0-7.2,1.5-9.6,4c-2.5,2.5-4,5.9-4,9.6 c0,7.5,6.1,13.6,13.6,13.6h-12.5c-3.8,0-7.2,1.5-9.6,4c-2.5,2.5-4,5.9-4,9.6c0,7.5,6.1,13.6,13.6,13.6h-12.5 c-7.5,0-13.6,6.1-13.6,13.6s6.1,13.6,13.6,13.6h-12.5c-3.8,0-7.2,1.5-9.6,4C1098.6,713.9,1097.1,717.3,1097.1,721.1z"/> </g> <g clip-path="url(#SVGID_2_)"> <polygon fill="#424F31" points="807.7,722.5 982.5,722.5 907.2,557.4 897.1,535.4 "/> <path fill="#313D20" d="M831.6,713.6c0,3.4,1.2,6.5,3.1,8.9h147.7l-75.3-165.1c-5.9,1.7-10.2,7.2-10.2,13.7 c0,7.9,6.4,14.3,14.3,14.3h-13.1c-3.9,0-7.5,1.6-10.1,4.2c-2.6,2.6-4.2,6.1-4.2,10.1c0,7.9,6.4,14.3,14.3,14.3h-13.1 c-3.9,0-7.5,1.6-10.1,4.2c-2.6,2.6-4.2,6.1-4.2,10.1c0,7.9,6.4,14.3,14.3,14.3H872c-3.9,0-7.5,1.6-10.1,4.2 c-2.6,2.6-4.2,6.1-4.2,10.1c0,7.9,6.4,14.3,14.3,14.3h-13.1c-7.9,0-14.2,6.4-14.2,14.3c0,7.9,6.4,14.3,14.2,14.3h-13.1 c-3.9,0-7.5,1.6-10.1,4.2S831.6,709.7,831.6,713.6z"/> </g> <g clip-path="url(#SVGID_2_)"> <polygon fill="#424F31" points="1331.2,743.3 1498.5,743.3 1426.4,585.2 1416.8,564.1 "/> <path fill="#313D20" d="M1354,734.7c0,3.2,1.1,6.2,3,8.5h141.4l-72-158c-5.6,1.7-9.8,6.9-9.8,13.1c0,7.5,6.1,13.6,13.6,13.6h-12.5 c-3.8,0-7.2,1.5-9.6,4c-2.5,2.5-4,5.9-4,9.6c0,7.5,6.1,13.6,13.6,13.6h-12.5c-3.8,0-7.2,1.5-9.6,4c-2.5,2.5-4,5.9-4,9.6 c0,7.5,6.1,13.6,13.6,13.6h-12.5c-3.8,0-7.2,1.5-9.6,4c-2.5,2.5-4,5.9-4,9.6c0,7.5,6.1,13.6,13.6,13.6h-12.5 c-7.5,0-13.6,6.1-13.6,13.6s6.1,13.6,13.6,13.6h-12.5c-3.8,0-7.2,1.5-9.6,4S1354,730.9,1354,734.7z"/> </g> <g opacity="0.42" clip-path="url(#SVGID_2_)"> <path fill="#E6E7E8" d="M342.8,930.9H188.7c-4.9,0-9-4-9-9l0,0c0-4.9,4-9,9-9h154.1c4.9,0,9,4,9,9l0,0 C351.7,926.9,347.7,930.9,342.8,930.9z"/> <circle fill="#E6E7E8" cx="151.7" cy="921.9" r="9"/> <circle fill="#E6E7E8" cx="378.7" cy="921.9" r="9"/> <circle fill="#E6E7E8" cx="405" cy="921.9" r="9"/> </g> <g opacity="0.43" clip-path="url(#SVGID_2_)"> <path fill="#1E2715" d="M1165.4,763.9h154.1c4.9,0,9,4,9,9v0c0,4.9-4,9-9,9h-154.1c-4.9,0-9-4-9-9v0 C1156.4,767.9,1160.5,763.9,1165.4,763.9z"/> <circle fill="#1E2715" cx="1356.4" cy="772.8" r="9"/> <circle fill="#1E2715" cx="1129.4" cy="772.8" r="9"/> <circle fill="#1E2715" cx="1103.2" cy="772.8" r="9"/> </g> <g opacity="0.43" clip-path="url(#SVGID_2_)"> <path fill="#1E2715" d="M719.5,769.5h-98.4c-3.2,0-5.7-2.6-5.7-5.7l0,0c0-3.2,2.6-5.7,5.7-5.7h98.4c3.2,0,5.7,2.6,5.7,5.7l0,0 C725.3,767,722.7,769.5,719.5,769.5z"/> <circle fill="#1E2715" cx="597.5" cy="763.8" r="5.7"/> <circle fill="#1E2715" cx="742.5" cy="763.8" r="5.7"/> <circle fill="#1E2715" cx="759.3" cy="763.8" r="5.7"/> </g> <g opacity="0.43" clip-path="url(#SVGID_2_)"> <path fill="#1E2715" d="M506.5,763.8h-98.4c-3.2,0-5.7-2.6-5.7-5.7l0,0c0-3.2,2.6-5.7,5.7-5.7h98.4c3.2,0,5.7,2.6,5.7,5.7l0,0 C512.2,761.2,509.7,763.8,506.5,763.8z"/> <circle fill="#1E2715" cx="384.5" cy="758.1" r="5.7"/> <circle fill="#1E2715" cx="529.5" cy="758.1" r="5.7"/> <circle fill="#1E2715" cx="546.3" cy="758.1" r="5.7"/> </g> <g opacity="0.43" clip-path="url(#SVGID_2_)"> <path fill="#1E2715" d="M156.1,749H57.7c-3.2,0-5.7-2.6-5.7-5.7l0,0c0-3.2,2.6-5.7,5.7-5.7h98.4c3.2,0,5.7,2.6,5.7,5.7l0,0 C161.8,746.4,159.3,749,156.1,749z"/> <circle fill="#1E2715" cx="34.1" cy="743.3" r="5.7"/> <circle fill="#1E2715" cx="179.1" cy="743.3" r="5.7"/> <circle fill="#1E2715" cx="195.8" cy="743.3" r="5.7"/> </g> <g opacity="0.43" clip-path="url(#SVGID_2_)"> <path fill="#1E2715" d="M306.9,787.5h-98.4c-3.2,0-5.7-2.6-5.7-5.7v0c0-3.2,2.6-5.7,5.7-5.7h98.4c3.2,0,5.7,2.6,5.7,5.7v0 C312.6,785,310.1,787.5,306.9,787.5z"/> <circle fill="#1E2715" cx="184.9" cy="781.8" r="5.7"/> <circle fill="#1E2715" cx="329.9" cy="781.8" r="5.7"/> <circle fill="#1E2715" cx="346.6" cy="781.8" r="5.7"/> </g> <g opacity="0.43" clip-path="url(#SVGID_2_)"> <path fill="#1E2715" d="M41.1,806.6h-98.4c-3.2,0-5.7-2.6-5.7-5.7l0,0c0-3.2,2.6-5.7,5.7-5.7h98.4c3.2,0,5.7,2.6,5.7,5.7l0,0 C46.9,804.1,44.3,806.6,41.1,806.6z"/> <circle fill="#1E2715" cx="-80.9" cy="800.9" r="5.7"/> <circle fill="#1E2715" cx="64.1" cy="800.9" r="5.7"/> <circle fill="#1E2715" cx="80.9" cy="800.9" r="5.7"/> </g> <g opacity="0.43" clip-path="url(#SVGID_2_)"> <path fill="#1E2715" d="M712.4,801h98.4c3.2,0,5.7,2.6,5.7,5.7v0c0,3.2-2.6,5.7-5.7,5.7h-98.4c-3.2,0-5.7-2.6-5.7-5.7v0 C706.7,803.5,709.2,801,712.4,801z"/> <circle fill="#1E2715" cx="834.4" cy="806.7" r="5.7"/> <circle fill="#1E2715" cx="689.4" cy="806.7" r="5.7"/> <circle fill="#1E2715" cx="672.6" cy="806.7" r="5.7"/> </g> <g opacity="0.43" clip-path="url(#SVGID_2_)"> <path fill="#1E2715" d="M1079.4,818.1h-98.4c-3.2,0-5.7-2.6-5.7-5.7v0c0-3.2,2.6-5.7,5.7-5.7h98.4c3.2,0,5.7,2.6,5.7,5.7v0 C1085.1,815.6,1082.5,818.1,1079.4,818.1z"/> <circle fill="#1E2715" cx="957.3" cy="812.4" r="5.7"/> <circle fill="#1E2715" cx="1102.3" cy="812.4" r="5.7"/> <circle fill="#1E2715" cx="1119.1" cy="812.4" r="5.7"/> </g> <g opacity="0.42" clip-path="url(#SVGID_2_)"> <path fill="#E6E7E8" d="M541.1,957.6h138.6c4.4,0,8.1,3.6,8.1,8.1l0,0c0,4.4-3.6,8.1-8.1,8.1H541.1c-4.4,0-8.1-3.6-8.1-8.1l0,0 C533,961.2,536.6,957.6,541.1,957.6z"/> <circle fill="#E6E7E8" cx="712.9" cy="965.6" r="8.1"/> <circle fill="#E6E7E8" cx="508.8" cy="965.6" r="8.1"/> <circle fill="#E6E7E8" cx="485.1" cy="965.6" r="8.1"/> </g> <g opacity="0.42" clip-path="url(#SVGID_2_)"> <path fill="#E6E7E8" d="M1393.6,951h138.6c4.4,0,8.1,3.6,8.1,8.1l0,0c0,4.4-3.6,8.1-8.1,8.1h-138.6c-4.4,0-8.1-3.6-8.1-8.1l0,0 C1385.6,954.6,1389.2,951,1393.6,951z"/> <circle fill="#E6E7E8" cx="1565.4" cy="959" r="8.1"/> <circle fill="#E6E7E8" cx="1361.3" cy="959" r="8.1"/> <circle fill="#E6E7E8" cx="1337.7" cy="959" r="8.1"/> </g> <g opacity="0.42" clip-path="url(#SVGID_2_)"> <path fill="#E6E7E8" d="M104.3,967.1H-34.2c-4.4,0-8.1-3.6-8.1-8.1l0,0c0-4.4,3.6-8.1,8.1-8.1h138.6c4.4,0,8.1,3.6,8.1,8.1l0,0 C112.4,963.5,108.8,967.1,104.3,967.1z"/> <circle fill="#E6E7E8" cx="-67.5" cy="959" r="8.1"/> <circle fill="#E6E7E8" cx="136.7" cy="959" r="8.1"/> <circle fill="#E6E7E8" cx="160.3" cy="959" r="8.1"/> </g> <g opacity="0.42" clip-path="url(#SVGID_2_)"> <path fill="#E6E7E8" d="M1165.6,963.5h-77.3c-2.5,0-4.5-2-4.5-4.5l0,0c0-2.5,2-4.5,4.5-4.5h77.3c2.5,0,4.5,2,4.5,4.5l0,0 C1170.1,961.5,1168.1,963.5,1165.6,963.5z"/> <circle fill="#E6E7E8" cx="1069.7" cy="959" r="4.5"/> <circle fill="#E6E7E8" cx="1183.7" cy="959" r="4.5"/> <circle fill="#E6E7E8" cx="1196.9" cy="959" r="4.5"/> </g> <g opacity="0.42" clip-path="url(#SVGID_2_)"> <path fill="#E6E7E8" d="M1342.9,912.9h-77.3c-2.5,0-4.5-2-4.5-4.5l0,0c0-2.5,2-4.5,4.5-4.5h77.3c2.5,0,4.5,2,4.5,4.5l0,0 C1347.4,910.9,1345.4,912.9,1342.9,912.9z"/> <circle fill="#E6E7E8" cx="1247" cy="908.4" r="4.5"/> <circle fill="#E6E7E8" cx="1360.9" cy="908.4" r="4.5"/> <circle fill="#E6E7E8" cx="1374.1" cy="908.4" r="4.5"/> </g> <g opacity="0.42" clip-path="url(#SVGID_2_)"> <path fill="#E6E7E8" d="M933.7,971.6h-77.3c-2.5,0-4.5-2-4.5-4.5l0,0c0-2.5,2-4.5,4.5-4.5h77.3c2.5,0,4.5,2,4.5,4.5l0,0 C938.2,969.6,936.2,971.6,933.7,971.6z"/> <circle fill="#E6E7E8" cx="837.8" cy="967.1" r="4.5"/> <circle fill="#E6E7E8" cx="951.8" cy="967.1" r="4.5"/> <circle fill="#E6E7E8" cx="965" cy="967.1" r="4.5"/> </g> <path clip-path="url(#SVGID_2_)" fill="#3C2415" d="M578.8,443.7c0,0,29.8,7.3,38.4,34c0,0,5.5-32.8,34.7-26.1 c0,0-11.8-15.2-35.3,5.1C616.6,456.8,594.3,438.4,578.8,443.7z"/> <path clip-path="url(#SVGID_2_)" fill="#3C2415" d="M1253.8,394.8c0,0,19.8,4.8,25.5,22.6c0,0,3.7-21.8,23.1-17.3 c0,0-7.8-10.1-23.5,3.4C1278.9,403.4,1264,391.2,1253.8,394.8z"/> <path clip-path="url(#SVGID_2_)" fill="#3C2415" d="M1210.4,342.8c0,0,29.8,7.3,38.4,34c0,0,5.5-32.8,34.7-26.1 c0,0-11.8-15.2-35.3,5.1C1248.2,355.9,1225.9,337.4,1210.4,342.8z"/> <path clip-path="url(#SVGID_2_)" fill="#3C2415" d="M160.5,418.9c0,0,23.8,5.8,30.7,27.2c0,0,4.4-26.3,27.8-20.9 c0,0-9.4-12.1-28.3,4.1C190.7,429.4,172.8,414.7,160.5,418.9z"/> <path clip-path="url(#SVGID_2_)" fill="#3C2415" d="M92,367.4c0,0,29.8,7.3,38.4,34c0,0,5.5-32.8,34.7-26.1c0,0-11.8-15.2-35.3,5.1 C129.8,380.5,107.4,362.1,92,367.4z"/> <path clip-path="url(#SVGID_2_)" fill="#3C2415" d="M516.6,392.5c0,0,29.8,7.3,38.4,34c0,0,5.5-32.8,34.7-26.1 c0,0-11.8-15.2-35.3,5.1C554.4,405.6,532,387.2,516.6,392.5z"/> <path clip-path="url(#SVGID_2_)" fill="#3C2415" d="M471.4,451.8c0,0,30.5,7.4,39.3,34.8c0,0,5.6-33.5,35.5-26.6 c0,0-12-15.5-36.1,5.2C510,465.1,487.2,446.3,471.4,451.8z"/> <rect clip-path="url(#SVGID_2_)" fill="none" width="1600" height="1000"/> <g clip-path="url(#SVGID_2_)"> <polygon fill="#424F31" points="929.6,754.4 1123.4,754.4 1040,571.3 1028.8,546.9 "/> <path fill="#313D20" d="M956.1,744.5c0,3.7,1.3,7.2,3.5,9.9h163.8L1040,571.3c-6.5,1.9-11.3,8-11.3,15.1c0,8.7,7.1,15.8,15.8,15.8 h-14.5c-4.4,0-8.3,1.8-11.2,4.6c-2.9,2.9-4.6,6.8-4.6,11.2c0,8.7,7.1,15.8,15.8,15.8h-14.5c-4.4,0-8.3,1.8-11.2,4.6 c-2.9,2.9-4.6,6.8-4.6,11.2c0,8.7,7.1,15.8,15.8,15.8h-14.5c-4.4,0-8.3,1.8-11.2,4.6c-2.9,2.9-4.6,6.8-4.6,11.2 c0,8.7,7.1,15.8,15.8,15.8h-14.5c-8.7,0-15.8,7.1-15.8,15.8s7.1,15.8,15.8,15.8h-14.5c-4.4,0-8.3,1.8-11.2,4.6 C957.9,736.2,956.1,740.1,956.1,744.5z"/> </g> </g> </svg>